# xmcd CD database file
#
# Track frame offsets:
#	150
#	10175
#	21260
#	34137
#	48595
#	65115
#	79007
#	88922
#	102022
#
# Disc length: 1599 seconds
#
# Revision: 0
# Processed by: cddbd v1.5.1PL2 Copyright (c) Steve Scherf et al.
# Submitted via: CD2WAV32(JP) R3.22
#
DISCID=6f063d09
DTITLE=どばと - 闇の花ビラ〜復刻盤〜
DYEAR=2002
DGENRE=Rock
TTITLE0=いたずらムスメ
TTITLE1=ゆがんだ太陽
TTITLE2=凍える私
TTITLE3=なげキッス'55
TTITLE4=グッバイ★ベイビー
TTITLE5=ぬりつぶされて
TTITLE6=ちっちゃな時から(bonus track)
TTITLE7=戻れない道(bonus track)
TTITLE8=遙かな思い(bonus track)
EXTD=
EXTT0=
EXTT1=
EXTT2=
EXTT3=
EXTT4=
EXTT5=
EXTT6=
EXTT7=
EXTT8=
PLAYORDER=
